<svg xmlns="http://www.w3.org/2000/svg" xmlns:xlink="http://www.w3.org/1999/xlink" width="500" zoomAndPan="magnify" viewBox="0 0 375 374.999991" height="500" preserveAspectRatio="xMidYMid meet" version="1.0"><defs><g/><clipPath id="015ed32997"><path d="M 83 24.0625 L 292 24.0625 L 292 251 L 83 251 Z M 83 24.0625 " clip-rule="nonzero"/></clipPath><clipPath id="86f89d7344"><path d="M 51.945312 215 L 187 215 L 187 281 L 51.945312 281 Z M 51.945312 215 " clip-rule="nonzero"/></clipPath><clipPath id="bc20eac517"><path d="M 157 236 L 322.695312 236 L 322.695312 297.0625 L 157 297.0625 Z M 157 236 " clip-rule="nonzero"/></clipPath></defs><g fill="#000000" fill-opacity="1"><g transform="translate(4.391362, 339.10172)"><g><path d="M 7.0625 0 C 5.71875 0 4.59375 -0.179688 3.6875 -0.546875 C 2.78125 -0.910156 2.050781 -1.394531 1.5 -2 C 0.957031 -2.601562 0.570312 -3.316406 0.34375 -4.140625 C 0.113281 -4.960938 0 -5.8125 0 -6.6875 L 0 -14.390625 L 5.1875 -14.390625 L 5.1875 -7.59375 C 5.1875 -6.625 5.351562 -5.992188 5.6875 -5.703125 C 6.019531 -5.421875 6.582031 -5.28125 7.375 -5.28125 L 28.53125 -5.28125 L 28.53125 -18.109375 L 33.765625 -18.109375 L 33.765625 0 Z M 11.75 -25.21875 C 11.75 -25.945312 12.003906 -26.566406 12.515625 -27.078125 C 13.035156 -27.597656 13.691406 -27.859375 14.484375 -27.859375 C 15.265625 -27.859375 15.910156 -27.597656 16.421875 -27.078125 C 16.941406 -26.566406 17.203125 -25.945312 17.203125 -25.21875 C 17.203125 -24.488281 16.941406 -23.863281 16.421875 -23.34375 C 15.910156 -22.832031 15.265625 -22.578125 14.484375 -22.578125 C 13.691406 -22.578125 13.035156 -22.832031 12.515625 -23.34375 C 12.003906 -23.863281 11.75 -24.488281 11.75 -25.21875 Z M 18.84375 -25.21875 C 18.84375 -25.945312 19.097656 -26.566406 19.609375 -27.078125 C 20.128906 -27.597656 20.785156 -27.859375 21.578125 -27.859375 C 22.367188 -27.859375 23.019531 -27.597656 23.53125 -27.078125 C 24.050781 -26.566406 24.3125 -25.945312 24.3125 -25.21875 C 24.3125 -24.488281 24.050781 -23.863281 23.53125 -23.34375 C 23.019531 -22.832031 22.367188 -22.578125 21.578125 -22.578125 C 20.785156 -22.578125 20.128906 -22.832031 19.609375 -23.34375 C 19.097656 -23.863281 18.84375 -24.488281 18.84375 -25.21875 Z M 18.84375 -25.21875 "/></g></g></g><g fill="#000000" fill-opacity="1"><g transform="translate(41.807842, 339.10172)"><g><path d="M 3.375 -32.59375 L 8.515625 -32.59375 L 8.515625 0 L 3.375 0 Z M 3.375 -32.59375 "/></g></g></g><g fill="#000000" fill-opacity="1"><g transform="translate(53.68826, 339.10172)"><g><path d="M 11.96875 -0.734375 C 11.96875 0.628906 11.785156 1.90625 11.421875 3.09375 C 11.054688 4.28125 10.507812 5.3125 9.78125 6.1875 C 9.050781 7.070312 8.15625 7.765625 7.09375 8.265625 C 6.03125 8.765625 4.800781 9.015625 3.40625 9.015625 C 2.832031 9.015625 2.300781 8.988281 1.8125 8.9375 C 1.332031 8.894531 0.910156 8.84375 0.546875 8.78125 C 0.335938 8.75 0.132812 8.71875 -0.0625 8.6875 C -0.257812 8.65625 -0.46875 8.613281 -0.6875 8.5625 L -0.09375 3.375 L 1.1875 3.640625 C 1.550781 3.703125 1.925781 3.753906 2.3125 3.796875 C 2.707031 3.847656 3.070312 3.875 3.40625 3.875 C 4.75 3.875 5.644531 3.445312 6.09375 2.59375 C 6.550781 1.738281 6.78125 0.492188 6.78125 -1.140625 L 6.78125 -18.109375 L 11.96875 -18.109375 Z M 11.96875 -0.734375 "/></g></g></g><g fill="#000000" fill-opacity="1"><g transform="translate(69.119155, 339.10172)"><g><path d="M 3.40625 -32.59375 L 8.609375 -32.59375 L 8.609375 -5.28125 L 11.703125 -5.28125 C 12.179688 -5.28125 12.507812 -5.15625 12.6875 -4.90625 C 12.875 -4.664062 12.96875 -4.378906 12.96875 -4.046875 L 12.96875 -1.28125 C 12.96875 -1.03125 12.859375 -0.753906 12.640625 -0.453125 C 12.429688 -0.148438 12.117188 0 11.703125 0 L 3.40625 0 Z M 3.40625 -32.59375 "/></g></g></g><g fill="#000000" fill-opacity="1"><g transform="translate(80.726462, 339.10172)"><g><path d="M 22.984375 -5.28125 L 27.40625 -5.28125 C 27.882812 -5.28125 28.207031 -5.15625 28.375 -4.90625 C 28.539062 -4.664062 28.625 -4.378906 28.625 -4.046875 L 28.625 -1.28125 C 28.625 -1.03125 28.523438 -0.753906 28.328125 -0.453125 C 28.128906 -0.148438 27.820312 0 27.40625 0 L -0.140625 0 C -0.617188 0 -0.941406 -0.117188 -1.109375 -0.359375 C -1.273438 -0.609375 -1.359375 -0.882812 -1.359375 -1.1875 L -1.359375 -3.875 C -1.359375 -4.207031 -1.257812 -4.523438 -1.0625 -4.828125 C -0.875 -5.128906 -0.566406 -5.28125 -0.140625 -5.28125 L 5.640625 -5.28125 C 5.429688 -5.613281 5.179688 -6.164062 4.890625 -6.9375 C 4.597656 -7.71875 4.453125 -8.710938 4.453125 -9.921875 C 4.453125 -11.160156 4.695312 -12.375 5.1875 -13.5625 C 5.675781 -14.75 6.359375 -15.796875 7.234375 -16.703125 C 8.117188 -17.609375 9.1875 -18.34375 10.4375 -18.90625 C 11.695312 -19.46875 13.085938 -19.75 14.609375 -19.75 C 15.878906 -19.75 17.03125 -19.535156 18.0625 -19.109375 C 19.101562 -18.691406 19.984375 -18.09375 20.703125 -17.3125 C 21.429688 -16.539062 21.992188 -15.609375 22.390625 -14.515625 C 22.785156 -13.421875 22.984375 -12.207031 22.984375 -10.875 Z M 17.75 -5.28125 L 17.75 -11.109375 C 17.75 -11.535156 17.679688 -11.957031 17.546875 -12.375 C 17.410156 -12.800781 17.191406 -13.1875 16.890625 -13.53125 C 16.585938 -13.882812 16.207031 -14.164062 15.75 -14.375 C 15.289062 -14.59375 14.726562 -14.703125 14.0625 -14.703125 C 13.488281 -14.703125 12.9375 -14.585938 12.40625 -14.359375 C 11.875 -14.128906 11.398438 -13.8125 10.984375 -13.40625 C 10.578125 -13 10.253906 -12.503906 10.015625 -11.921875 C 9.773438 -11.347656 9.65625 -10.695312 9.65625 -9.96875 C 9.65625 -8.875 9.863281 -8.015625 10.28125 -7.390625 C 10.707031 -6.773438 11.179688 -6.300781 11.703125 -5.96875 C 12.273438 -5.601562 12.972656 -5.375 13.796875 -5.28125 Z M 7.96875 -25.21875 C 7.96875 -25.945312 8.222656 -26.566406 8.734375 -27.078125 C 9.253906 -27.597656 9.910156 -27.859375 10.703125 -27.859375 C 11.484375 -27.859375 12.128906 -27.597656 12.640625 -27.078125 C 13.160156 -26.566406 13.421875 -25.945312 13.421875 -25.21875 C 13.421875 -24.488281 13.160156 -23.863281 12.640625 -23.34375 C 12.128906 -22.832031 11.484375 -22.578125 10.703125 -22.578125 C 9.910156 -22.578125 9.253906 -22.832031 8.734375 -23.34375 C 8.222656 -23.863281 7.96875 -24.488281 7.96875 -25.21875 Z M 15.0625 -25.21875 C 15.0625 -25.945312 15.316406 -26.566406 15.828125 -27.078125 C 16.347656 -27.597656 17.003906 -27.859375 17.796875 -27.859375 C 18.585938 -27.859375 19.238281 -27.597656 19.75 -27.078125 C 20.269531 -26.566406 20.53125 -25.945312 20.53125 -25.21875 C 20.53125 -24.488281 20.269531 -23.863281 19.75 -23.34375 C 19.238281 -22.832031 18.585938 -22.578125 17.796875 -22.578125 C 17.003906 -22.578125 16.347656 -22.832031 15.828125 -23.34375 C 15.316406 -23.863281 15.0625 -24.488281 15.0625 -25.21875 Z M 15.0625 -25.21875 "/></g></g></g><g fill="#000000" fill-opacity="1"><g transform="translate(107.992238, 339.10172)"><g><path d="M 13.296875 -15.015625 C 12.285156 -15.015625 11.21875 -14.882812 10.09375 -14.625 C 8.976562 -14.375 8.070312 -14.035156 7.375 -13.609375 C 7.5 -13.335938 7.726562 -12.941406 8.0625 -12.421875 C 8.394531 -11.910156 8.800781 -11.347656 9.28125 -10.734375 C 9.769531 -10.128906 10.296875 -9.539062 10.859375 -8.96875 C 11.421875 -8.394531 11.988281 -7.910156 12.5625 -7.515625 C 13.226562 -7.910156 13.859375 -8.378906 14.453125 -8.921875 C 15.046875 -9.460938 15.550781 -10.019531 15.96875 -10.59375 C 16.394531 -11.175781 16.726562 -11.738281 16.96875 -12.28125 C 17.21875 -12.832031 17.34375 -13.320312 17.34375 -13.75 C 17.34375 -13.988281 17.21875 -14.191406 16.96875 -14.359375 C 16.726562 -14.523438 16.410156 -14.65625 16.015625 -14.75 C 15.628906 -14.84375 15.195312 -14.910156 14.71875 -14.953125 C 14.25 -14.992188 13.773438 -15.015625 13.296875 -15.015625 Z M -0.140625 0 C -0.585938 0 -0.898438 -0.117188 -1.078125 -0.359375 C -1.265625 -0.609375 -1.359375 -0.882812 -1.359375 -1.1875 L -1.359375 -3.875 C -1.359375 -4.207031 -1.257812 -4.523438 -1.0625 -4.828125 C -0.875 -5.128906 -0.566406 -5.28125 -0.140625 -5.28125 L 4.5 -5.28125 C 5.164062 -5.28125 5.757812 -5.3125 6.28125 -5.375 C 6.800781 -5.4375 7.238281 -5.507812 7.59375 -5.59375 C 7.050781 -6.113281 6.503906 -6.691406 5.953125 -7.328125 C 5.410156 -7.960938 4.910156 -8.59375 4.453125 -9.21875 C 4.003906 -9.84375 3.613281 -10.429688 3.28125 -10.984375 C 2.945312 -11.546875 2.71875 -12.007812 2.59375 -12.375 L 2.40625 -16.015625 C 3.070312 -16.566406 3.832031 -17.082031 4.6875 -17.5625 C 5.539062 -18.050781 6.441406 -18.476562 7.390625 -18.84375 C 8.347656 -19.207031 9.328125 -19.492188 10.328125 -19.703125 C 11.328125 -19.921875 12.332031 -20.03125 13.34375 -20.03125 C 14.882812 -20.03125 16.21875 -19.867188 17.34375 -19.546875 C 18.46875 -19.234375 19.390625 -18.816406 20.109375 -18.296875 C 20.835938 -17.785156 21.382812 -17.21875 21.75 -16.59375 C 22.113281 -15.96875 22.296875 -15.367188 22.296875 -14.796875 C 22.296875 -13.515625 21.960938 -12.082031 21.296875 -10.5 C 20.628906 -8.925781 19.328125 -7.234375 17.390625 -5.421875 C 18.023438 -5.328125 19.085938 -5.28125 20.578125 -5.28125 L 24.4375 -5.28125 C 24.925781 -5.28125 25.257812 -5.15625 25.4375 -4.90625 C 25.625 -4.664062 25.71875 -4.378906 25.71875 -4.046875 L 25.71875 -1.28125 C 25.71875 -1.03125 25.617188 -0.753906 25.421875 -0.453125 C 25.222656 -0.148438 24.894531 0 24.4375 0 L 20.484375 0 C 18.453125 0 16.753906 -0.210938 15.390625 -0.640625 C 14.023438 -1.066406 12.976562 -1.488281 12.25 -1.90625 C 11.09375 -1.238281 9.835938 -0.753906 8.484375 -0.453125 C 7.140625 -0.148438 5.8125 0 4.5 0 Z M -0.140625 0 "/></g></g></g><g fill="#000000" fill-opacity="1"><g transform="translate(132.344808, 339.10172)"><g><path d="M -0.140625 0 C -0.648438 0 -0.976562 -0.117188 -1.125 -0.359375 C -1.28125 -0.609375 -1.359375 -0.882812 -1.359375 -1.1875 L -1.359375 -3.875 C -1.359375 -4.207031 -1.257812 -4.523438 -1.0625 -4.828125 C -0.875 -5.128906 -0.566406 -5.28125 -0.140625 -5.28125 L 4.234375 -5.28125 C 4.898438 -5.28125 5.347656 -5.488281 5.578125 -5.90625 C 5.804688 -6.332031 5.921875 -6.910156 5.921875 -7.640625 L 5.921875 -32.59375 L 11.15625 -32.59375 L 11.15625 -9.46875 C 11.15625 -8.25 11.429688 -7.242188 11.984375 -6.453125 C 12.546875 -5.671875 13.601562 -5.28125 15.15625 -5.28125 L 16.75 -5.28125 C 17.269531 -5.28125 17.601562 -5.15625 17.75 -4.90625 C 17.90625 -4.664062 17.984375 -4.378906 17.984375 -4.046875 L 17.984375 -1.28125 C 17.984375 -1.03125 17.882812 -0.753906 17.6875 -0.453125 C 17.488281 -0.148438 17.175781 0 16.75 0 L 14.96875 0 C 13.664062 0 12.613281 -0.304688 11.8125 -0.921875 C 11.007812 -1.546875 10.394531 -2.238281 9.96875 -3 C 9.445312 -2 8.71875 -1.25 7.78125 -0.75 C 6.84375 -0.25 5.734375 0 4.453125 0 Z M -0.140625 0 "/></g></g></g><g fill="#000000" fill-opacity="1"><g transform="translate(148.959175, 339.10172)"><g><path d="M -0.1875 0 C -0.632812 0 -0.941406 -0.117188 -1.109375 -0.359375 C -1.273438 -0.609375 -1.359375 -0.882812 -1.359375 -1.1875 L -1.359375 -3.875 C -1.359375 -4.207031 -1.265625 -4.523438 -1.078125 -4.828125 C -0.898438 -5.128906 -0.601562 -5.28125 -0.1875 -5.28125 L 5.1875 -5.28125 L 5.1875 -32.59375 L 10.328125 -32.59375 L 10.328125 0 Z M -0.1875 0 "/></g></g></g><g fill="#000000" fill-opacity="1"><g transform="translate(163.388636, 339.10172)"><g/></g></g><g fill="#000000" fill-opacity="1"><g transform="translate(174.768348, 339.10172)"><g><path d="M 11.96875 -0.734375 C 11.96875 0.628906 11.785156 1.90625 11.421875 3.09375 C 11.054688 4.28125 10.507812 5.3125 9.78125 6.1875 C 9.050781 7.070312 8.15625 7.765625 7.09375 8.265625 C 6.03125 8.765625 4.800781 9.015625 3.40625 9.015625 C 2.832031 9.015625 2.300781 8.988281 1.8125 8.9375 C 1.332031 8.894531 0.910156 8.84375 0.546875 8.78125 C 0.335938 8.75 0.132812 8.71875 -0.0625 8.6875 C -0.257812 8.65625 -0.46875 8.613281 -0.6875 8.5625 L -0.09375 3.375 L 1.1875 3.640625 C 1.550781 3.703125 1.925781 3.753906 2.3125 3.796875 C 2.707031 3.847656 3.070312 3.875 3.40625 3.875 C 4.75 3.875 5.644531 3.445312 6.09375 2.59375 C 6.550781 1.738281 6.78125 0.492188 6.78125 -1.140625 L 6.78125 -18.109375 L 11.96875 -18.109375 Z M 11.96875 -0.734375 "/></g></g></g><g fill="#000000" fill-opacity="1"><g transform="translate(190.199243, 339.10172)"><g><path d="M 3.375 -32.59375 L 8.515625 -32.59375 L 8.515625 0 L 3.375 0 Z M 3.375 -32.59375 "/></g></g></g><g fill="#000000" fill-opacity="1"><g transform="translate(202.07966, 339.10172)"><g><path d="M 22.984375 0 C 21.710938 0 20.664062 -0.296875 19.84375 -0.890625 C 19.019531 -1.484375 18.382812 -2.171875 17.9375 -2.953125 C 17.414062 -2.015625 16.675781 -1.285156 15.71875 -0.765625 C 14.769531 -0.253906 13.6875 0 12.46875 0 L 1.734375 0 L 1.734375 -5.28125 L 12.109375 -5.28125 C 12.804688 -5.28125 13.273438 -5.460938 13.515625 -5.828125 C 13.753906 -6.191406 13.875 -6.769531 13.875 -7.5625 C 13.875 -8.769531 13.828125 -9.835938 13.734375 -10.765625 C 13.648438 -11.691406 13.425781 -12.445312 13.0625 -13.03125 C 12.695312 -13.625 12.15625 -14.070312 11.4375 -14.375 C 10.726562 -14.6875 9.753906 -14.84375 8.515625 -14.84375 L 4.1875 -14.84375 L 4.1875 -19.84375 L 9.5625 -19.84375 C 11.320312 -19.84375 12.804688 -19.59375 14.015625 -19.09375 C 15.234375 -18.59375 16.207031 -17.898438 16.9375 -17.015625 C 17.664062 -16.140625 18.1875 -15.101562 18.5 -13.90625 C 18.820312 -12.707031 18.984375 -11.410156 18.984375 -10.015625 C 18.984375 -8.460938 19.300781 -7.285156 19.9375 -6.484375 C 20.570312 -5.679688 21.617188 -5.28125 23.078125 -5.28125 L 24.71875 -5.28125 C 25.164062 -5.28125 25.476562 -5.15625 25.65625 -4.90625 C 25.84375 -4.664062 25.9375 -4.378906 25.9375 -4.046875 L 25.9375 -1.28125 C 25.9375 -1.03125 25.835938 -0.753906 25.640625 -0.453125 C 25.453125 -0.148438 25.144531 0 24.71875 0 Z M 22.984375 0 "/></g></g></g><g fill="#000000" fill-opacity="1"><g transform="translate(226.659827, 339.10172)"><g><path d="M -0.1875 0 C -0.632812 0 -0.941406 -0.117188 -1.109375 -0.359375 C -1.273438 -0.609375 -1.359375 -0.882812 -1.359375 -1.1875 L -1.359375 -3.875 C -1.359375 -4.207031 -1.265625 -4.523438 -1.078125 -4.828125 C -0.898438 -5.128906 -0.601562 -5.28125 -0.1875 -5.28125 L 5.1875 -5.28125 L 5.1875 -32.59375 L 10.328125 -32.59375 L 10.328125 0 Z M -0.1875 0 "/></g></g></g><g fill="#000000" fill-opacity="1"><g transform="translate(241.089289, 339.10172)"><g><path d="M 3.375 -32.59375 L 8.515625 -32.59375 L 8.515625 0 L 3.375 0 Z M 3.375 -32.59375 "/></g></g></g><g fill="#000000" fill-opacity="1"><g transform="translate(252.969707, 339.10172)"><g/></g></g><g fill="#000000" fill-opacity="1"><g transform="translate(264.349418, 339.10172)"><g><path d="M 11.25 0 C 10.269531 0 9.421875 0.132812 8.703125 0.40625 C 7.992188 0.675781 7.40625 1.046875 6.9375 1.515625 C 6.46875 1.992188 6.109375 2.523438 5.859375 3.109375 C 5.617188 3.703125 5.5 4.320312 5.5 4.96875 C 5.5 6.507812 6.019531 7.75 7.0625 8.6875 C 8.113281 9.632812 9.6875 10.109375 11.78125 10.109375 C 12.144531 10.109375 12.5625 10.078125 13.03125 10.015625 C 13.507812 9.953125 13.972656 9.875 14.421875 9.78125 C 14.878906 9.695312 15.3125 9.597656 15.71875 9.484375 C 16.132812 9.378906 16.460938 9.28125 16.703125 9.1875 L 17.390625 13.921875 C 17.140625 14.046875 16.78125 14.175781 16.3125 14.3125 C 15.84375 14.445312 15.304688 14.578125 14.703125 14.703125 C 14.097656 14.828125 13.453125 14.925781 12.765625 15 C 12.085938 15.070312 11.425781 15.109375 10.78125 15.109375 C 9.476562 15.109375 8.179688 14.914062 6.890625 14.53125 C 5.609375 14.15625 4.457031 13.566406 3.4375 12.765625 C 2.414062 11.960938 1.585938 10.9375 0.953125 9.6875 C 0.316406 8.445312 0 6.945312 0 5.1875 C 0 3.550781 0.28125 2.085938 0.84375 0.796875 C 1.40625 -0.492188 2.207031 -1.59375 3.25 -2.5 C 4.300781 -3.414062 5.550781 -4.109375 7 -4.578125 C 8.457031 -5.046875 10.097656 -5.28125 11.921875 -5.28125 L 16.34375 -5.28125 C 15.914062 -5.914062 15.570312 -6.6875 15.3125 -7.59375 C 15.050781 -8.507812 14.863281 -9.4375 14.75 -10.375 C 14.414062 -13.164062 13.140625 -14.5625 10.921875 -14.5625 C 10.285156 -14.5625 9.488281 -14.46875 8.53125 -14.28125 C 7.570312 -14.101562 6.65625 -13.800781 5.78125 -13.375 L 4.453125 -18.296875 C 4.816406 -18.453125 5.285156 -18.617188 5.859375 -18.796875 C 6.441406 -18.984375 7.066406 -19.148438 7.734375 -19.296875 C 8.398438 -19.453125 9.085938 -19.582031 9.796875 -19.6875 C 10.515625 -19.789062 11.222656 -19.84375 11.921875 -19.84375 C 13.222656 -19.84375 14.351562 -19.632812 15.3125 -19.21875 C 16.269531 -18.8125 17.066406 -18.238281 17.703125 -17.5 C 18.335938 -16.757812 18.835938 -15.875 19.203125 -14.84375 C 19.566406 -13.8125 19.828125 -12.6875 19.984375 -11.46875 C 20.046875 -10.863281 20.128906 -10.253906 20.234375 -9.640625 C 20.335938 -9.035156 20.503906 -8.453125 20.734375 -7.890625 C 20.960938 -7.335938 21.257812 -6.816406 21.625 -6.328125 C 21.988281 -5.835938 22.472656 -5.410156 23.078125 -5.046875 L 23.078125 0 Z M 11.25 0 "/></g></g></g><g fill="#000000" fill-opacity="1"><g transform="translate(289.612371, 339.10172)"><g><path d="M 3.40625 -32.59375 L 8.609375 -32.59375 L 8.609375 -5.28125 L 11.703125 -5.28125 C 12.179688 -5.28125 12.507812 -5.15625 12.6875 -4.90625 C 12.875 -4.664062 12.96875 -4.378906 12.96875 -4.046875 L 12.96875 -1.28125 C 12.96875 -1.03125 12.859375 -0.753906 12.640625 -0.453125 C 12.429688 -0.148438 12.117188 0 11.703125 0 L 3.40625 0 Z M 3.40625 -32.59375 "/></g></g></g><g fill="#000000" fill-opacity="1"><g transform="translate(301.219678, 339.10172)"><g><path d="M -0.140625 0 C -0.648438 0 -0.976562 -0.117188 -1.125 -0.359375 C -1.28125 -0.609375 -1.359375 -0.882812 -1.359375 -1.1875 L -1.359375 -3.875 C -1.359375 -4.207031 -1.257812 -4.523438 -1.0625 -4.828125 C -0.875 -5.128906 -0.566406 -5.28125 -0.140625 -5.28125 L 4.234375 -5.28125 C 4.898438 -5.28125 5.347656 -5.488281 5.578125 -5.90625 C 5.804688 -6.332031 5.921875 -6.910156 5.921875 -7.640625 L 5.921875 -18.109375 L 11.109375 -18.109375 L 11.109375 -9.46875 C 11.109375 -8.25 11.394531 -7.242188 11.96875 -6.453125 C 12.539062 -5.671875 13.585938 -5.28125 15.109375 -5.28125 L 16.703125 -5.28125 C 17.222656 -5.28125 17.554688 -5.15625 17.703125 -4.90625 C 17.859375 -4.664062 17.9375 -4.378906 17.9375 -4.046875 L 17.9375 -1.28125 C 17.9375 -1.03125 17.835938 -0.753906 17.640625 -0.453125 C 17.441406 -0.148438 17.128906 0 16.703125 0 L 14.96875 0 C 13.632812 0 12.566406 -0.316406 11.765625 -0.953125 C 10.960938 -1.585938 10.347656 -2.285156 9.921875 -3.046875 C 9.410156 -2.171875 8.691406 -1.441406 7.765625 -0.859375 C 6.835938 -0.285156 5.734375 0 4.453125 0 Z M 2.875 -25.21875 C 2.875 -25.945312 3.128906 -26.566406 3.640625 -27.078125 C 4.160156 -27.597656 4.816406 -27.859375 5.609375 -27.859375 C 6.390625 -27.859375 7.035156 -27.597656 7.546875 -27.078125 C 8.066406 -26.566406 8.328125 -25.945312 8.328125 -25.21875 C 8.328125 -24.488281 8.066406 -23.863281 7.546875 -23.34375 C 7.035156 -22.832031 6.390625 -22.578125 5.609375 -22.578125 C 4.816406 -22.578125 4.160156 -22.832031 3.640625 -23.34375 C 3.128906 -23.863281 2.875 -24.488281 2.875 -25.21875 Z M 9.96875 -25.21875 C 9.96875 -25.945312 10.222656 -26.566406 10.734375 -27.078125 C 11.253906 -27.597656 11.910156 -27.859375 12.703125 -27.859375 C 13.492188 -27.859375 14.144531 -27.597656 14.65625 -27.078125 C 15.175781 -26.566406 15.4375 -25.945312 15.4375 -25.21875 C 15.4375 -24.488281 15.175781 -23.863281 14.65625 -23.34375 C 14.144531 -22.832031 13.492188 -22.578125 12.703125 -22.578125 C 11.910156 -22.578125 11.253906 -22.832031 10.734375 -23.34375 C 10.222656 -23.863281 9.96875 -24.488281 9.96875 -25.21875 Z M 9.96875 -25.21875 "/></g></g></g><g fill="#000000" fill-opacity="1"><g transform="translate(317.788529, 339.10172)"><g><path d="M 22.984375 -5.28125 L 27.40625 -5.28125 C 27.882812 -5.28125 28.207031 -5.15625 28.375 -4.90625 C 28.539062 -4.664062 28.625 -4.378906 28.625 -4.046875 L 28.625 -1.28125 C 28.625 -1.03125 28.523438 -0.753906 28.328125 -0.453125 C 28.128906 -0.148438 27.820312 0 27.40625 0 L -0.140625 0 C -0.617188 0 -0.941406 -0.117188 -1.109375 -0.359375 C -1.273438 -0.609375 -1.359375 -0.882812 -1.359375 -1.1875 L -1.359375 -3.875 C -1.359375 -4.207031 -1.257812 -4.523438 -1.0625 -4.828125 C -0.875 -5.128906 -0.566406 -5.28125 -0.140625 -5.28125 L 5.640625 -5.28125 C 5.429688 -5.613281 5.179688 -6.164062 4.890625 -6.9375 C 4.597656 -7.71875 4.453125 -8.710938 4.453125 -9.921875 C 4.453125 -11.160156 4.695312 -12.375 5.1875 -13.5625 C 5.675781 -14.75 6.359375 -15.796875 7.234375 -16.703125 C 8.117188 -17.609375 9.1875 -18.34375 10.4375 -18.90625 C 11.695312 -19.46875 13.085938 -19.75 14.609375 -19.75 C 15.878906 -19.75 17.03125 -19.535156 18.0625 -19.109375 C 19.101562 -18.691406 19.984375 -18.09375 20.703125 -17.3125 C 21.429688 -16.539062 21.992188 -15.609375 22.390625 -14.515625 C 22.785156 -13.421875 22.984375 -12.207031 22.984375 -10.875 Z M 17.75 -5.28125 L 17.75 -11.109375 C 17.75 -11.535156 17.679688 -11.957031 17.546875 -12.375 C 17.410156 -12.800781 17.191406 -13.1875 16.890625 -13.53125 C 16.585938 -13.882812 16.207031 -14.164062 15.75 -14.375 C 15.289062 -14.59375 14.726562 -14.703125 14.0625 -14.703125 C 13.488281 -14.703125 12.9375 -14.585938 12.40625 -14.359375 C 11.875 -14.128906 11.398438 -13.8125 10.984375 -13.40625 C 10.578125 -13 10.253906 -12.503906 10.015625 -11.921875 C 9.773438 -11.347656 9.65625 -10.695312 9.65625 -9.96875 C 9.65625 -8.875 9.863281 -8.015625 10.28125 -7.390625 C 10.707031 -6.773438 11.179688 -6.300781 11.703125 -5.96875 C 12.273438 -5.601562 12.972656 -5.375 13.796875 -5.28125 Z M 11.390625 -25.21875 C 11.390625 -25.945312 11.65625 -26.566406 12.1875 -27.078125 C 12.71875 -27.597656 13.359375 -27.859375 14.109375 -27.859375 C 14.898438 -27.859375 15.5625 -27.597656 16.09375 -27.078125 C 16.625 -26.566406 16.890625 -25.945312 16.890625 -25.21875 C 16.890625 -24.488281 16.625 -23.863281 16.09375 -23.34375 C 15.5625 -22.832031 14.898438 -22.578125 14.109375 -22.578125 C 13.359375 -22.578125 12.71875 -22.832031 12.1875 -23.34375 C 11.65625 -23.863281 11.390625 -24.488281 11.390625 -25.21875 Z M 11.390625 -25.21875 "/></g></g></g><g fill="#000000" fill-opacity="1"><g transform="translate(345.054306, 339.10172)"><g><path d="M 13.796875 -5 C 15.222656 -5 16.273438 -5.4375 16.953125 -6.3125 C 17.640625 -7.195312 17.984375 -8.265625 17.984375 -9.515625 C 17.984375 -10.304688 17.859375 -11.019531 17.609375 -11.65625 C 17.367188 -12.289062 17.054688 -12.832031 16.671875 -13.28125 C 16.296875 -13.738281 15.859375 -14.085938 15.359375 -14.328125 C 14.859375 -14.578125 14.335938 -14.703125 13.796875 -14.703125 C 13.210938 -14.703125 12.660156 -14.578125 12.140625 -14.328125 C 11.628906 -14.085938 11.179688 -13.738281 10.796875 -13.28125 C 10.421875 -12.832031 10.117188 -12.289062 9.890625 -11.65625 C 9.671875 -11.019531 9.5625 -10.304688 9.5625 -9.515625 C 9.5625 -8.296875 9.882812 -7.238281 10.53125 -6.34375 C 11.1875 -5.445312 12.273438 -5 13.796875 -5 Z M -0.140625 0 C -0.585938 0 -0.898438 -0.117188 -1.078125 -0.359375 C -1.265625 -0.609375 -1.359375 -0.882812 -1.359375 -1.1875 L -1.359375 -3.875 C -1.359375 -4.207031 -1.257812 -4.523438 -1.0625 -4.828125 C -0.875 -5.128906 -0.566406 -5.28125 -0.140625 -5.28125 L 1.640625 -5.28125 C 3.515625 -5.28125 4.453125 -6.707031 4.453125 -9.5625 C 4.453125 -11.019531 4.6875 -12.367188 5.15625 -13.609375 C 5.632812 -14.847656 6.296875 -15.914062 7.140625 -16.8125 C 7.992188 -17.707031 8.988281 -18.40625 10.125 -18.90625 C 11.257812 -19.40625 12.507812 -19.65625 13.875 -19.65625 C 15.394531 -19.65625 16.722656 -19.394531 17.859375 -18.875 C 19.003906 -18.363281 19.945312 -17.65625 20.6875 -16.75 C 21.425781 -15.84375 21.976562 -14.75 22.34375 -13.46875 C 22.707031 -12.195312 22.890625 -10.800781 22.890625 -9.28125 C 22.890625 -8.101562 22.726562 -6.953125 22.40625 -5.828125 C 22.09375 -4.703125 21.570312 -3.707031 20.84375 -2.84375 C 20.113281 -1.976562 19.179688 -1.285156 18.046875 -0.765625 C 16.910156 -0.253906 15.519531 0 13.875 0 C 13.207031 0 12.539062 -0.0351562 11.875 -0.109375 C 11.207031 -0.191406 10.546875 -0.34375 9.890625 -0.5625 C 9.242188 -0.789062 8.625 -1.109375 8.03125 -1.515625 C 7.4375 -1.929688 6.898438 -2.457031 6.421875 -3.09375 C 5.960938 -2.03125 5.332031 -1.25 4.53125 -0.75 C 3.726562 -0.25 2.867188 0 1.953125 0 Z M -0.140625 0 "/></g></g></g><path fill="#2096f3" d="M 274.730469 280.410156 L 280.726562 280.410156 L 280.726562 274.410156 L 274.730469 274.410156 L 274.730469 280.410156 " fill-opacity="1" fill-rule="nonzero"/><path fill="#2096f3" d="M 266.460938 280.410156 L 272.457031 280.410156 L 272.457031 274.410156 L 266.460938 274.410156 L 266.460938 280.410156 " fill-opacity="1" fill-rule="nonzero"/><path fill="#2096f3" d="M 274.730469 288.683594 L 280.726562 288.683594 L 280.726562 282.683594 L 274.730469 282.683594 L 274.730469 288.683594 " fill-opacity="1" fill-rule="nonzero"/><path fill="#2096f3" d="M 266.460938 288.683594 L 272.457031 288.683594 L 272.457031 282.683594 L 266.460938 282.683594 L 266.460938 288.683594 " fill-opacity="1" fill-rule="nonzero"/><path fill="#2096f3" d="M 291.386719 255.320312 L 284.328125 252.304688 L 291.386719 259.550781 Z M 291.386719 255.320312 " fill-opacity="1" fill-rule="nonzero"/><g clip-path="url(#015ed32997)"><path fill="#2096f3" d="M 130.089844 103.667969 L 130.089844 161.964844 L 128.300781 161.964844 L 128.300781 102.902344 Z M 142.234375 108.863281 L 142.234375 191.425781 L 138.113281 191.425781 L 138.113281 107.101562 Z M 153.292969 66.308594 L 159.621094 60.636719 L 159.621094 112.46875 L 156.417969 111.097656 L 154.148438 110.128906 L 153.292969 109.757812 Z M 87.664062 130.726562 L 92.914062 126.019531 L 92.914062 232.945312 L 95.582031 230.210938 L 95.582031 123.636719 L 102.253906 117.664062 L 102.253906 197.96875 L 104.917969 197.96875 L 104.917969 115.277344 L 112.464844 108.523438 L 112.464844 222.367188 L 115.125 222.367188 L 115.125 106.148438 L 120.382812 101.4375 L 120.382812 222.367188 L 141.859375 222.367188 L 141.859375 221.769531 L 140.757812 221.769531 L 140.757812 211.363281 L 154.148438 211.363281 L 154.148438 113.964844 L 156.417969 114.933594 L 156.417969 211.363281 L 160.25 211.363281 L 160.25 221.769531 L 159.230469 221.769531 L 159.230469 222.367188 L 164.96875 222.367188 L 164.96875 114.757812 L 162.832031 113.84375 L 162.832031 57.765625 L 170.875 50.566406 L 170.875 147.359375 L 174.089844 147.359375 L 174.089844 47.695312 L 183.179688 39.550781 L 183.179688 229.25 L 186.390625 232.550781 L 186.390625 36.679688 L 192.738281 31.007812 L 192.738281 238.09375 L 206.320312 238.09375 L 207.425781 239.226562 L 210.273438 242.152344 L 219.917969 242.152344 L 219.917969 233.15625 L 224.675781 233.15625 L 224.675781 168.382812 L 229.210938 164.324219 L 229.210938 233.15625 L 231.507812 233.15625 L 231.507812 162.265625 L 237.269531 157.109375 L 237.269531 226.398438 L 239.570312 226.398438 L 239.570312 155.058594 L 246.078125 149.226562 L 246.078125 242.152344 L 248.375 242.152344 L 248.375 147.175781 L 252.914062 143.113281 L 252.914062 242.152344 L 260.582031 242.152344 L 256.09375 240.234375 L 256.09375 235.535156 L 271.578125 242.152344 L 274.449219 242.152344 L 275.554688 243.289062 L 276.492188 244.253906 L 291.386719 250.617188 L 291.386719 240.128906 L 256.09375 225.046875 L 256.09375 220.347656 L 291.386719 235.429688 L 291.386719 224.941406 L 256.09375 209.859375 L 256.09375 205.160156 L 291.386719 220.242188 L 291.386719 209.75 L 256.09375 194.667969 L 256.09375 189.96875 L 291.386719 205.054688 L 291.386719 194.566406 L 256.09375 179.480469 L 256.09375 174.785156 L 291.386719 189.867188 L 291.386719 179.375 L 256.09375 164.289062 L 256.09375 159.589844 L 291.386719 174.675781 L 291.386719 164.1875 L 256.09375 149.105469 L 256.09375 144.40625 L 291.386719 159.492188 L 291.386719 154.605469 L 256.667969 139.75 L 252.914062 138.140625 L 248.375 142.183594 L 246.46875 143.875 L 246.46875 129.851562 L 197.984375 109.128906 L 197.984375 104.429688 L 246.46875 125.152344 L 246.46875 119.367188 L 197.984375 98.640625 L 197.984375 93.941406 L 246.46875 114.667969 L 246.46875 108.875 L 197.984375 88.148438 L 197.984375 83.449219 L 246.46875 104.175781 L 246.46875 98.390625 L 197.984375 77.660156 L 197.984375 72.964844 L 246.46875 93.6875 L 246.46875 87.898438 L 197.984375 67.171875 L 197.984375 62.46875 L 246.46875 83.199219 L 246.46875 77.410156 L 197.984375 56.683594 L 197.984375 51.984375 L 246.46875 72.710938 L 246.46875 66.917969 L 197.984375 46.199219 L 197.984375 41.496094 L 246.46875 62.21875 L 246.46875 56.433594 L 197.984375 35.707031 L 197.984375 31.007812 L 246.46875 51.734375 L 246.46875 47.066406 L 197.984375 26.304688 L 192.738281 24.0625 L 186.390625 29.703125 L 183.179688 32.558594 L 174.089844 40.652344 L 170.875 43.507812 L 162.832031 50.660156 L 159.621094 53.523438 L 147.949219 63.90625 L 147.949219 107.46875 L 142.234375 105.027344 L 138.113281 103.265625 L 138.113281 103.257812 L 130.089844 99.824219 L 130.089844 99.828125 L 128.300781 99.0625 L 124.742188 97.539062 L 120.382812 95.679688 L 117.839844 97.933594 L 115.125 100.355469 L 112.464844 102.722656 L 104.917969 109.4375 L 102.253906 111.804688 L 95.582031 117.742188 L 92.914062 120.117188 L 83.234375 128.734375 L 83.234375 242.890625 L 87.664062 238.34375 L 87.664062 130.726562 " fill-opacity="1" fill-rule="nonzero"/></g><path fill="#2096f3" d="M 97.667969 261.378906 L 104.03125 261.378906 L 104.03125 255.011719 L 97.667969 255.011719 L 97.667969 261.378906 " fill-opacity="1" fill-rule="nonzero"/><path fill="#2096f3" d="M 106.445312 261.378906 L 112.808594 261.378906 L 112.808594 255.011719 L 106.445312 255.011719 L 106.445312 261.378906 " fill-opacity="1" fill-rule="nonzero"/><path fill="#2096f3" d="M 97.667969 270.164062 L 104.03125 270.164062 L 104.03125 263.792969 L 97.667969 263.792969 L 97.667969 270.164062 " fill-opacity="1" fill-rule="nonzero"/><path fill="#2096f3" d="M 106.445312 270.164062 L 112.808594 270.164062 L 112.808594 263.792969 L 106.445312 263.792969 L 106.445312 270.164062 " fill-opacity="1" fill-rule="nonzero"/><g clip-path="url(#86f89d7344)"><path fill="#2096f3" d="M 177.828125 280.40625 L 164.96875 267.203125 L 163.308594 265.5 L 150.773438 265.5 L 154.148438 262.03125 L 156.417969 259.703125 L 156.972656 259.128906 L 164.96875 250.921875 L 166.972656 248.867188 L 176.351562 239.226562 L 177.457031 238.09375 L 186.546875 238.09375 L 186.390625 237.929688 L 183.179688 234.628906 L 174.898438 226.117188 L 155.480469 226.117188 L 155.480469 218.019531 L 156.503906 218.019531 L 156.503906 215.113281 L 144.503906 215.113281 L 144.503906 218.019531 L 145.605469 218.019531 L 145.605469 240.039062 L 140.570312 234.867188 L 140.570312 226.117188 L 104.800781 226.117188 L 95.582031 235.585938 L 92.914062 238.320312 L 87.664062 243.714844 L 83.234375 248.265625 L 51.941406 280.40625 L 62.960938 280.40625 L 83.234375 259.597656 L 87.664062 255.046875 L 92.914062 249.65625 L 95.582031 246.917969 L 104.800781 237.449219 L 112.464844 245.316406 L 115.125 248.046875 L 120.382812 253.449219 L 146.636719 280.40625 L 177.828125 280.40625 " fill-opacity="1" fill-rule="nonzero"/></g><path fill="#2096f3" d="M 203.988281 257.359375 L 200.878906 257.359375 L 200.878906 260.472656 L 203.988281 260.472656 L 203.988281 257.359375 " fill-opacity="1" fill-rule="nonzero"/><path fill="#2096f3" d="M 200.878906 264.765625 L 203.988281 264.765625 L 203.988281 261.652344 L 200.878906 261.652344 L 200.878906 264.765625 " fill-opacity="1" fill-rule="nonzero"/><path fill="#2096f3" d="M 208.277344 257.359375 L 205.167969 257.359375 L 205.167969 260.472656 L 208.277344 260.472656 L 208.277344 257.359375 " fill-opacity="1" fill-rule="nonzero"/><path fill="#2096f3" d="M 205.167969 264.765625 L 208.277344 264.765625 L 208.277344 261.652344 L 205.167969 261.652344 L 205.167969 264.765625 " fill-opacity="1" fill-rule="nonzero"/><g clip-path="url(#bc20eac517)"><path fill="#2096f3" d="M 291.386719 264.921875 L 275.371094 248.476562 L 272.871094 245.902344 L 239.171875 245.902344 L 239.171875 254.136719 L 234.414062 259.027344 L 234.414062 239.8125 L 235.65625 239.8125 L 235.65625 236.910156 L 223.664062 236.910156 L 223.664062 239.8125 L 224.675781 239.8125 L 224.675781 245.902344 L 212.988281 245.902344 L 224.675781 257.910156 L 226.320312 259.601562 L 229.210938 262.570312 L 231.414062 264.828125 L 223.15625 264.828125 L 223.15625 284.355469 L 169.382812 284.355469 L 164.96875 288.890625 L 157.023438 297.0625 L 233.453125 297.0625 L 246.078125 284.09375 L 248.375 281.734375 L 252.914062 277.074219 L 258.289062 271.550781 L 261.523438 268.230469 L 268.738281 260.820312 L 271.96875 257.503906 L 272.871094 256.578125 L 275.0625 258.828125 L 282.894531 266.878906 L 291.386719 275.59375 L 312.285156 297.0625 L 322.671875 297.0625 L 291.386719 264.921875 " fill-opacity="1" fill-rule="nonzero"/></g><path fill="#2096f3" d="M 220.074219 279.636719 L 220.074219 261.75 L 224.121094 261.75 L 208.691406 245.902344 L 205.039062 242.152344 L 204.742188 241.84375 L 179.035156 241.84375 L 169.65625 251.480469 L 164.96875 256.292969 L 159.65625 261.75 L 164.886719 261.75 L 164.96875 261.828125 L 164.96875 261.75 L 189.402344 261.75 L 192.738281 258.328125 L 199.496094 251.386719 L 204.742188 245.996094 L 205.738281 247.019531 L 215.824219 257.375 L 215.824219 279.636719 L 220.074219 279.636719 " fill-opacity="1" fill-rule="nonzero"/></svg>